# xmcd
#
# Track frame offsets: 
#        225
#        13450
#        29584
#        42643
#        55791
#        67953
#        81163
#        96410
#        110062
#        120797
#        140502
#        151983
#        160836
#        172204
#        182133
#        194293
#
# Disc length: 2786 seconds
#
# Revision: 0
# Processed by: cddbd v1.4PL0 Copyright (c) Steve Scherf et al.
# Submitted via: ExactAudioCopy v0.90a11
#
DISCID=e40adf10
DTITLE=Various Artist - Country Special Collection
DYEAR=1900
DGENRE=
TTITLE0=Life a railway to heaven
TTITLE1=Ruby tuesday
TTITLE2=Kaw liga
TTITLE3=Drinkin and drivin
TTITLE4=We can handle it
TTITLE5=Under your spell again
TTITLE6=Highway calling
TTITLE7=I will always love you
TTITLE8=King of the road
TTITLE9=El paso
TTITLE10=Oh lonesome me
TTITLE11=Wings of a dove
TTITLE12=Young love
TTITLE13=Please help me i'm falling
TTITLE14=I walk the line
TTITLE15=Face of a fighter
EXTD=
EXTT0=
EXTT1=
EXTT2=
EXTT3=
EXTT4=
EXTT5=
EXTT6=
EXTT7=
EXTT8=
EXTT9=
EXTT10=
EXTT11=
EXTT12=
EXTT13=
EXTT14=
EXTT15=
PLAYORDER=
